<svg width="1315" height="482" viewBox="0 0 1315 482" fill="none" xmlns="http://www.w3.org/2000/svg">
<g clip-path="url(#clip0_85_31)">
<path d="M0 360.799V0H1407.98C1407.98 0 1406.71 434.718 1407.97 437.913C1408 437.925 1408.01 437.931 1407.98 437.931C1407.98 437.931 1407.98 437.925 1407.97 437.913C1406.24 437.297 1328.26 420.213 1283.01 328.289C1283.01 328.289 1262.63 401.596 1207.92 391.397C1153.21 381.198 1123.71 307.89 1123.71 307.89C1123.71 307.89 1084.55 421.995 1010.53 421.995C936.511 421.995 904.328 344.225 904.328 344.225C904.328 344.225 885.019 445.581 808.317 472.354C731.616 499.127 673.151 421.995 673.151 421.995C673.151 421.995 613.613 437.931 563.73 437.931C513.847 437.931 466.11 360.799 466.11 360.799C466.11 360.799 424.809 401.596 370.099 401.596C315.389 401.596 219.377 328.289 219.377 328.289C219.377 328.289 185.049 401.596 119.612 401.596C54.1739 401.596 0 360.799 0 360.799Z" fill="url(#paint0_linear_85_31)"/>
</g>
<defs>
<linearGradient id="paint0_linear_85_31" x1="668.323" y1="422.632" x2="663.778" y2="0.0142841" gradientUnits="userSpaceOnUse">
<stop stop-color="#EACBCC"/>
<stop offset="1" stop-color="#D6A8AC"/>
</linearGradient>
<clipPath id="clip0_85_31">
<rect width="1315" height="482" fill="white"/>
</clipPath>
</defs>
</svg>
