<svg width="1315" height="482" viewBox="0 0 1315 482" fill="none" xmlns="http://www.w3.org/2000/svg">
<path d="M165.184 21.4627L154 38.2809L155.561 48.1018L165.184 66.2704L172.726 67.498L183 42.0865C179.359 34.5163 172.024 19.4003 171.816 19.4985C171.608 19.5967 167.308 20.8489 165.184 21.4627Z" fill="#FEFAE0"/>
<path d="M165.776 38.4107C164.049 41.6081 159 43.4527 159 43.4527C159 43.4527 164.182 45.0514 165.776 49.7246C167.371 54.3977 168.832 63.498 168.832 63.498C168.832 63.498 169.364 53.9058 171.755 49.7246C174.147 45.5434 178 43.4527 178 43.4527C178 43.4527 173.217 41.6081 171.755 38.4107C170.294 35.2133 168.832 25.498 168.832 25.498C168.832 25.498 167.503 35.2133 165.776 38.4107Z" stroke="#B05768"/>
<path d="M1127.18 5.96465L1116 22.7829L1117.56 32.6038L1127.18 50.7724L1134.73 52L1145 26.5885C1141.36 19.0182 1134.02 3.90227 1133.82 4.00048C1133.61 4.09868 1129.31 5.35085 1127.18 5.96465Z" fill="#FEFAE0"/>
<path d="M1127.78 22.9126C1126.05 26.11 1121 27.9547 1121 27.9547C1121 27.9547 1126.18 29.5534 1127.78 34.2265C1129.37 38.8997 1130.83 48 1130.83 48C1130.83 48 1131.36 38.4078 1133.76 34.2265C1136.15 30.0453 1140 27.9547 1140 27.9547C1140 27.9547 1135.22 26.11 1133.76 22.9126C1132.29 19.7152 1130.83 10 1130.83 10C1130.83 10 1129.5 19.7152 1127.78 22.9126Z" stroke="#B05768"/>
<path d="M86.3274 53.2279L79 63.7393L80.0224 69.8774L86.3274 81.2327L91.2691 82L98 66.1178C95.6143 61.3864 90.809 51.9389 90.6726 52.0003C90.5363 52.0617 87.719 52.8443 86.3274 53.2279Z" fill="#FEFAE0"/>
<path d="M86.6364 63.8155C85.4545 65.7508 82 66.8673 82 66.8673C82 66.8673 85.5455 67.835 86.6364 70.6634C87.7273 73.4919 88.7273 79 88.7273 79C88.7273 79 89.0909 73.1942 90.7273 70.6634C92.3636 68.1327 95 66.8673 95 66.8673C95 66.8673 91.7273 65.7508 90.7273 63.8155C89.7273 61.8803 88.7273 56 88.7273 56C88.7273 56 87.8182 61.8803 86.6364 63.8155Z" stroke="#B05768"/>
<path d="M463.327 97.2279L456 107.739L457.022 113.877L463.327 125.233L468.269 126L475 110.118C472.614 105.386 467.809 95.9389 467.673 96.0003C467.536 96.0617 464.719 96.8443 463.327 97.2279Z" fill="#FEFAE0"/>
<path d="M463.636 107.816C462.455 109.751 459 110.867 459 110.867C459 110.867 462.545 111.835 463.636 114.663C464.727 117.492 465.727 123 465.727 123C465.727 123 466.091 117.194 467.727 114.663C469.364 112.133 472 110.867 472 110.867C472 110.867 468.727 109.751 467.727 107.816C466.727 105.88 465.727 100 465.727 100C465.727 100 464.818 105.88 463.636 107.816Z" stroke="#B05768"/>
<path d="M797.327 3.22791L790 13.7393L791.022 19.8774L797.327 31.2327L802.269 32L809 16.1178C806.614 11.3864 801.809 1.93892 801.673 2.0003C801.536 2.06168 798.719 2.84428 797.327 3.22791Z" fill="#FEFAE0"/>
<path d="M797.636 13.8155C796.455 15.7508 793 16.8673 793 16.8673C793 16.8673 796.545 17.835 797.636 20.6634C798.727 23.4919 799.727 29 799.727 29C799.727 29 800.091 23.1942 801.727 20.6634C803.364 18.1327 806 16.8673 806 16.8673C806 16.8673 802.727 15.7508 801.727 13.8155C800.727 11.8803 799.727 6 799.727 6C799.727 6 798.818 11.8803 797.636 13.8155Z" stroke="#B05768"/>
<path d="M1262.33 160.228L1255 170.739L1256.02 176.877L1262.33 188.233L1267.27 189L1274 173.118C1271.61 168.386 1266.81 158.939 1266.67 159C1266.54 159.062 1263.72 159.844 1262.33 160.228Z" fill="#FEFAE0"/>
<path d="M1262.64 170.816C1261.45 172.751 1258 173.867 1258 173.867C1258 173.867 1261.55 174.835 1262.64 177.663C1263.73 180.492 1264.73 186 1264.73 186C1264.73 186 1265.09 180.194 1266.73 177.663C1268.36 175.133 1271 173.867 1271 173.867C1271 173.867 1267.73 172.751 1266.73 170.816C1265.73 168.88 1264.73 163 1264.73 163C1264.73 163 1263.82 168.88 1262.64 170.816Z" stroke="#B05768"/>
<path d="M142.031 69.906L159 94.783L156.632 109.31L142.031 136.184L130.587 138L115 100.412C120.525 89.2145 131.653 66.8554 131.969 67.0007C132.284 67.146 138.809 68.9981 142.031 69.906Z" fill="#FEFAE0"/>
<path d="M133.343 95.0291C130.706 99.7411 123 102.46 123 102.46C123 102.46 130.909 104.816 133.343 111.702C135.776 118.589 138.007 132 138.007 132C138.007 132 138.818 117.864 142.469 111.702C146.119 105.54 152 102.46 152 102.46C152 102.46 144.699 99.7411 142.469 95.0291C140.238 90.3172 138.007 76 138.007 76C138.007 76 135.979 90.3172 133.343 95.0291Z" stroke="#B05768" stroke-width="3"/>
<path d="M770.511 57.9293L752 91.5658L754.583 111.208L770.511 147.545L782.996 150L800 99.177C793.973 84.0365 781.833 53.8045 781.489 54.001C781.144 54.1974 774.027 56.7017 770.511 57.9293Z" fill="#FEFAE0"/>
<path d="M779.944 91.8252C782.762 98.2201 791 101.909 791 101.909C791 101.909 782.545 105.107 779.944 114.453C777.343 123.799 774.958 142 774.958 142C774.958 142 774.091 122.816 770.189 114.453C766.287 106.091 760 101.909 760 101.909C760 101.909 767.804 98.2201 770.189 91.8252C772.573 85.4304 774.958 66 774.958 66C774.958 66 777.126 85.4304 779.944 91.8252Z" stroke="#B05768" stroke-width="3"/>
<path d="M1182.39 37.4028L1209 83.653L1205.29 110.66L1182.39 160.624L1164.44 164L1140 94.1183C1148.66 73.3001 1166.11 31.7312 1166.61 32.0013C1167.1 32.2714 1177.34 35.7148 1182.39 37.4028Z" fill="#FEFAE0"/>
<path d="M1168.69 83.6796C1164.69 92.5146 1153 97.6116 1153 97.6116C1153 97.6116 1165 102.029 1168.69 114.942C1172.38 127.854 1175.77 153 1175.77 153C1175.77 153 1177 126.495 1182.54 114.942C1188.08 103.388 1197 97.6116 1197 97.6116C1197 97.6116 1185.92 92.5146 1182.54 83.6796C1179.15 74.8447 1175.77 48 1175.77 48C1175.77 48 1172.69 74.8447 1168.69 83.6796Z" stroke="#B05768" stroke-width="3"/>
<path d="M497.946 42.5377L518 64.2612L515.202 76.9465L497.946 100.414L484.422 102L466 69.1768C472.529 59.3985 485.681 39.8738 486.054 40.0006C486.427 40.1275 494.138 41.7448 497.946 42.5377Z" fill="#FEFAE0"/>
<path d="M487.769 64.6505C484.769 68.7735 476 71.1521 476 71.1521C476 71.1521 485 73.2136 487.769 79.2395C490.538 85.2654 493.077 97 493.077 97C493.077 97 494 84.6311 498.154 79.2395C502.308 73.8479 509 71.1521 509 71.1521C509 71.1521 500.692 68.7735 498.154 64.6505C495.615 60.5275 493.077 48 493.077 48C493.077 48 490.769 60.5275 487.769 64.6505Z" stroke="#B05768" stroke-width="3"/>
<path d="M821.184 36.9647L810 53.7829L811.561 63.6038L821.184 81.7724L828.726 83L839 57.5885C835.359 50.0182 828.024 34.9023 827.816 35.0005C827.608 35.0987 823.308 36.3508 821.184 36.9647Z" fill="#FEFAE0"/>
<path d="M821.776 53.9126C820.049 57.11 815 58.9547 815 58.9547C815 58.9547 820.182 60.5534 821.776 65.2265C823.371 69.8997 824.832 79 824.832 79C824.832 79 825.364 69.4078 827.755 65.2265C830.147 61.0453 834 58.9547 834 58.9547C834 58.9547 829.217 57.11 827.755 53.9126C826.294 50.7152 824.832 41 824.832 41C824.832 41 823.503 50.7152 821.776 53.9126Z" stroke="#B05768"/>
<path d="M1081.33 57.2279L1074 67.7393L1075.02 73.8774L1081.33 85.2327L1086.27 86L1093 70.1178C1090.61 65.3864 1085.81 55.9389 1085.67 56.0003C1085.54 56.0617 1082.72 56.8443 1081.33 57.2279Z" fill="#FEFAE0"/>
<path d="M1081.64 67.8155C1080.45 69.7508 1077 70.8673 1077 70.8673C1077 70.8673 1080.55 71.835 1081.64 74.6634C1082.73 77.4919 1083.73 83 1083.73 83C1083.73 83 1084.09 77.1942 1085.73 74.6634C1087.36 72.1327 1090 70.8673 1090 70.8673C1090 70.8673 1086.73 69.7508 1085.73 67.8155C1084.73 65.8803 1083.73 60 1083.73 60C1083.73 60 1082.82 65.8803 1081.64 67.8155Z" stroke="#B05768"/>
</svg>
