<svg width="1315" height="482" viewBox="0 0 1315 482" fill="none" xmlns="http://www.w3.org/2000/svg">
<path d="M405.573 93.3297C438.485 89.665 437.266 117.761 437.266 117.761C437.266 117.761 471.397 106.767 490.901 126.312C510.405 145.858 506.622 161.548 506.622 161.548C506.622 161.548 543.462 163.18 536.003 189.834C528.543 216.488 314.149 214.265 305.616 189.834C297.083 165.403 325.12 160.516 325.12 160.516C325.12 160.516 320.243 146.859 335.817 132.17C351.391 117.482 377.536 126.312 377.536 126.312C377.536 126.312 372.66 96.9944 405.573 93.3297Z" fill="url(#paint0_linear_85_31)"/>
<path d="M929.645 191.165C944.759 189.332 944.199 203.381 944.199 203.381C944.199 203.381 959.873 197.884 968.83 207.656C977.787 217.429 976.05 225.274 976.05 225.274C976.05 225.274 992.968 226.09 989.542 239.417C986.116 252.744 887.661 251.633 883.742 239.417C879.824 227.201 892.699 224.758 892.699 224.758C892.699 224.758 890.459 217.93 897.611 210.585C904.763 203.241 916.77 207.656 916.77 207.656C916.77 207.656 914.531 192.997 929.645 191.165Z" fill="url(#paint1_linear_85_31)"/>
<path d="M227 170C264.433 165.735 268.569 181.817 268.569 181.817C268.569 181.817 304.318 165.253 326.5 188C348.682 210.747 339.5 220 339.5 220C339.5 220 389.35 234.675 380.866 265.695C378.905 272.865 347 283 315 283C315 283 302.545 307 250 307C187.5 307 183 283 183 283C141.96 277.517 122.379 276.069 118.838 265.695C109.133 237.262 141.021 231.575 141.021 231.575C141.021 231.575 144.5 213 157.5 206C170.5 199 187.5 199 187.5 199C187.5 199 189.567 174.265 227 170Z" fill="url(#paint2_linear_85_31)"/>
<path d="M783.68 196.251C773.362 194.764 772.222 200.37 772.222 200.37C772.222 200.37 762.368 194.597 756.253 202.524C750.139 210.452 752.67 213.678 752.67 213.678C752.67 213.678 738.929 218.792 741.268 229.604C741.808 232.103 750.603 235.635 759.423 235.635C759.423 235.635 762.856 244 777.34 244C794.567 244 795.808 235.635 795.808 235.635C807.12 233.724 812.517 233.22 813.493 229.604C816.168 219.694 807.379 217.712 807.379 217.712C807.379 217.712 806.42 211.238 802.837 208.798C799.253 206.358 794.567 206.358 794.567 206.358C794.567 206.358 793.997 197.737 783.68 196.251Z" fill="url(#paint3_linear_85_31)"/>
<path d="M855.43 255.23C833.536 252.671 834.347 272.29 834.347 272.29C834.347 272.29 811.641 264.613 798.667 278.261C785.692 291.909 788.209 302.866 788.209 302.866C788.209 302.866 763.701 304.005 768.663 322.617C773.626 341.228 916.249 339.677 921.925 322.617C927.601 305.557 908.95 302.145 908.95 302.145C908.95 302.145 912.195 292.609 901.834 282.352C891.474 272.095 874.081 278.261 874.081 278.261C874.081 278.261 877.325 257.789 855.43 255.23Z" fill="url(#paint4_linear_85_31)"/>
<defs>
<linearGradient id="paint0_linear_85_31" x1="420.5" y1="93" x2="420.5" y2="209" gradientUnits="userSpaceOnUse">
<stop stop-color="#B6C9A1"/>
<stop offset="1" stop-color="#D6E6C4"/>
</linearGradient>
<linearGradient id="paint1_linear_85_31" x1="936.5" y1="191" x2="936.5" y2="249" gradientUnits="userSpaceOnUse">
<stop stop-color="#B6C9A1"/>
<stop offset="1" stop-color="#D6E6C4"/>
</linearGradient>
<linearGradient id="paint2_linear_85_31" x1="249.5" y1="153" x2="249.5" y2="288" gradientUnits="userSpaceOnUse">
<stop stop-color="#B6C9A1"/>
<stop offset="1" stop-color="#D6E6C4"/>
</linearGradient>
<linearGradient id="paint3_linear_85_31" x1="777.478" y1="190.326" x2="777.478" y2="237.378" gradientUnits="userSpaceOnUse">
<stop stop-color="#B6C9A1"/>
<stop offset="1" stop-color="#D6E6C4"/>
</linearGradient>
<linearGradient id="paint4_linear_85_31" x1="845.5" y1="255" x2="845.5" y2="336" gradientUnits="userSpaceOnUse">
<stop stop-color="#B6C9A1"/>
<stop offset="1" stop-color="#D6E6C4"/>
</linearGradient>
</defs>
</svg>
