<svg width="1315" height="482" viewBox="0 0 1315 482" fill="none" xmlns="http://www.w3.org/2000/svg">
<g clip-path="url(#clip0_85_31)">
<path d="M1327.38 44.6323C1327.38 44.6323 1321.31 118.622 1327.38 200.464C1333.45 282.307 1345.59 353.822 1327.38 383.022C1309.17 412.222 1268.94 383.022 1268.94 383.022C1268.94 383.022 1207.36 393.253 1130.96 394.898C1054.57 396.543 1041.41 355.474 1041.41 355.474C1041.41 355.474 922.216 388.367 850.171 341.083C778.126 293.799 932.35 229.657 932.35 229.657C932.35 229.657 927.626 203.35 968.606 171.683C1009.59 140.015 1075.75 153.18 1075.75 153.18C1075.75 153.18 1072.78 103.845 1130.96 82.4594C1189.15 61.0734 1239.72 91.5051 1239.72 91.5051C1239.72 91.5051 1250 66.013 1295.99 53.2668C1341.99 40.5206 1327.38 44.6323 1327.38 44.6323Z" fill="url(#paint0_linear_85_31)"/>
<path d="M35.7564 110.8C35.7564 110.8 -22.9296 89.1281 -27.5934 172.066C-32.2573 255.003 -55.5762 294.596 -41.5848 324.187C-27.5934 353.777 66.8484 342.941 66.8484 342.941C66.8484 342.941 112.709 381.284 171.395 382.951C230.081 384.618 289.933 342.941 289.933 342.941C289.933 342.941 452 335.023 452 281.676C452 228.329 387.096 228.33 387.096 228.33C387.096 228.33 384.764 193.321 353.283 161.229C321.802 129.138 275.164 147.893 275.164 147.893C275.164 147.893 284.881 105.382 240.186 83.7102C195.491 62.0381 158.958 95.7965 158.958 95.7965C158.958 95.7965 127.866 47.8678 90.556 59.9542C53.2457 72.0405 35.7564 110.8 35.7564 110.8Z" fill="url(#paint1_linear_85_31)"/>
</g>
<defs>
<linearGradient id="paint0_linear_85_31" x1="1160.63" y1="40.2233" x2="1160.63" y2="396" gradientUnits="userSpaceOnUse">
<stop stop-color="#B36E7B"/>
<stop offset="1" stop-color="#D7A9A5"/>
</linearGradient>
<linearGradient id="paint1_linear_85_31" x1="203" y1="58" x2="203" y2="383" gradientUnits="userSpaceOnUse">
<stop stop-color="#B7646C"/>
<stop offset="1" stop-color="#D7A9A5"/>
</linearGradient>
<clipPath id="clip0_85_31">
<rect width="1315" height="482" fill="white"/>
</clipPath>
</defs>
</svg>
