<svg width="1315" height="482" viewBox="0 0 1315 482" fill="none" xmlns="http://www.w3.org/2000/svg">
<g clip-path="url(#clip0_85_31)">
<path d="M1472.38 -13.3677C1472.38 -13.3677 1466.31 60.6218 1472.38 142.464C1478.45 224.307 1490.59 295.822 1472.38 325.022C1454.17 354.222 1413.94 325.022 1413.94 325.022C1413.94 325.022 1352.36 335.253 1275.96 336.898C1199.57 338.543 1186.41 297.474 1186.41 297.474C1186.41 297.474 1067.22 330.367 995.171 283.083C923.126 235.799 1077.35 171.657 1077.35 171.657C1077.35 171.657 1072.63 145.35 1113.61 113.683C1154.59 82.0149 1220.75 95.1801 1220.75 95.1801C1220.75 95.1801 1217.78 45.8454 1275.96 24.4594C1334.15 3.07345 1384.72 33.5051 1384.72 33.5051C1384.72 33.5051 1395 8.01297 1440.99 -4.73321C1486.99 -17.4794 1472.38 -13.3677 1472.38 -13.3677Z" fill="url(#paint0_linear_85_31)"/>
<path d="M8.75645 65.8003C8.75645 65.8003 -49.9296 44.1282 -54.5934 127.066C-59.2573 210.003 -82.5762 249.596 -68.5848 279.187C-54.5934 308.777 39.8484 297.941 39.8484 297.941C39.8484 297.941 85.709 336.284 144.395 337.951C203.081 339.618 262.933 297.941 262.933 297.941C262.933 297.941 425 290.023 425 236.676C425 183.329 360.096 183.33 360.096 183.33C360.096 183.33 357.764 148.321 326.283 116.229C294.802 84.1382 248.164 102.893 248.164 102.893C248.164 102.893 257.881 60.3822 213.186 38.7102C168.491 17.0381 131.958 50.7965 131.958 50.7965C131.958 50.7965 100.866 2.86784 63.5561 14.9542C26.2457 27.0405 8.75645 65.8003 8.75645 65.8003Z" fill="url(#paint1_linear_85_31)"/>
</g>
<defs>
<linearGradient id="paint0_linear_85_31" x1="1305.63" y1="-17.7767" x2="1305.63" y2="338" gradientUnits="userSpaceOnUse">
<stop stop-color="#B36E7B"/>
<stop offset="1" stop-color="#D7A9A5"/>
</linearGradient>
<linearGradient id="paint1_linear_85_31" x1="176" y1="13" x2="176" y2="338" gradientUnits="userSpaceOnUse">
<stop stop-color="#B7646C"/>
<stop offset="1" stop-color="#D7A9A5"/>
</linearGradient>
<clipPath id="clip0_85_31">
<rect width="1315" height="482" fill="white"/>
</clipPath>
</defs>
</svg>
