<svg width="1315" height="482" viewBox="0 0 1315 482" fill="none" xmlns="http://www.w3.org/2000/svg">
<path d="M355.573 16.3297C388.485 12.665 387.266 40.7613 387.266 40.7613C387.266 40.7613 421.397 29.7673 440.901 49.3124C460.405 68.8576 456.622 84.5483 456.622 84.5483C456.622 84.5483 493.462 86.1804 486.003 112.834C478.543 139.488 264.149 137.265 255.616 112.834C247.083 88.4026 275.12 83.5164 275.12 83.5164C275.12 83.5164 270.243 69.8593 285.817 55.1704C301.391 40.4815 327.536 49.3123 327.536 49.3123C327.536 49.3123 322.66 19.9944 355.573 16.3297Z" fill="url(#paint0_linear_85_31)"/>
<path d="M1139.64 85.1648C1154.76 83.3325 1154.2 97.3807 1154.2 97.3807C1154.2 97.3807 1169.87 91.8836 1178.83 101.656C1187.79 111.429 1186.05 119.274 1186.05 119.274C1186.05 119.274 1202.97 120.09 1199.54 133.417C1196.12 146.744 1097.66 145.633 1093.74 133.417C1089.82 121.201 1102.7 118.758 1102.7 118.758C1102.7 118.758 1100.46 111.93 1107.61 104.585C1114.76 97.2408 1126.77 101.656 1126.77 101.656C1126.77 101.656 1124.53 86.9972 1139.64 85.1648Z" fill="url(#paint1_linear_85_31)"/>
<path d="M177 93C214.433 88.7351 218.569 104.817 218.569 104.817C218.569 104.817 254.318 88.2535 276.5 111C298.682 133.747 289.5 143 289.5 143C289.5 143 339.35 157.675 330.866 188.695C328.905 195.865 297 206 265 206C265 206 252.545 230 200 230C137.5 230 133 206 133 206C91.9597 200.517 72.379 199.069 68.838 188.695C59.1332 160.262 91.0206 154.575 91.0206 154.575C91.0206 154.575 94.5 136 107.5 129C120.5 122 137.5 122 137.5 122C137.5 122 139.567 97.265 177 93Z" fill="url(#paint2_linear_85_31)"/>
<path d="M993.68 90.2509C983.362 88.7644 982.222 94.3695 982.222 94.3695C982.222 94.3695 972.368 88.5965 966.253 96.5245C960.139 104.452 962.67 107.678 962.67 107.678C962.67 107.678 948.929 112.792 951.268 123.604C951.808 126.103 960.603 129.635 969.423 129.635C969.423 129.635 972.856 138 987.34 138C1004.57 138 1005.81 129.635 1005.81 129.635C1017.12 127.724 1022.52 127.22 1023.49 123.604C1026.17 113.694 1017.38 111.712 1017.38 111.712C1017.38 111.712 1016.42 105.238 1012.84 102.798C1009.25 100.358 1004.57 100.358 1004.57 100.358C1004.57 100.358 1004 91.7373 993.68 90.2509Z" fill="url(#paint3_linear_85_31)"/>
<path d="M1065.43 149.23C1043.54 146.671 1044.35 166.29 1044.35 166.29C1044.35 166.29 1021.64 158.613 1008.67 172.261C995.692 185.909 998.209 196.866 998.209 196.866C998.209 196.866 973.701 198.005 978.663 216.617C983.626 235.228 1126.25 233.677 1131.92 216.617C1137.6 199.557 1118.95 196.145 1118.95 196.145C1118.95 196.145 1122.19 186.609 1111.83 176.352C1101.47 166.095 1084.08 172.261 1084.08 172.261C1084.08 172.261 1087.32 151.789 1065.43 149.23Z" fill="url(#paint4_linear_85_31)"/>
<defs>
<linearGradient id="paint0_linear_85_31" x1="370.5" y1="16" x2="370.5" y2="132" gradientUnits="userSpaceOnUse">
<stop stop-color="#D7A9A5"/>
<stop offset="1" stop-color="#FFE2DF"/>
</linearGradient>
<linearGradient id="paint1_linear_85_31" x1="1146.5" y1="85" x2="1146.5" y2="143" gradientUnits="userSpaceOnUse">
<stop stop-color="#D7A9A5"/>
<stop offset="1" stop-color="#FFE2DF"/>
</linearGradient>
<linearGradient id="paint2_linear_85_31" x1="199.5" y1="76" x2="199.5" y2="211" gradientUnits="userSpaceOnUse">
<stop stop-color="#C78E94"/>
<stop offset="1" stop-color="#FFE2DF"/>
</linearGradient>
<linearGradient id="paint3_linear_85_31" x1="987.478" y1="84.3258" x2="987.478" y2="131.378" gradientUnits="userSpaceOnUse">
<stop stop-color="#C78E94"/>
<stop offset="1" stop-color="#FFE2DF"/>
</linearGradient>
<linearGradient id="paint4_linear_85_31" x1="1055.5" y1="149" x2="1055.5" y2="230" gradientUnits="userSpaceOnUse">
<stop stop-color="#E9C0C1"/>
<stop offset="1" stop-color="#FFE2DF"/>
</linearGradient>
</defs>
</svg>
