<svg width="1315" height="482" viewBox="0 0 1315 482" fill="none" xmlns="http://www.w3.org/2000/svg">
<path d="M405.573 93.3297C438.485 89.665 437.266 117.761 437.266 117.761C437.266 117.761 471.397 106.767 490.901 126.312C510.405 145.858 506.622 161.548 506.622 161.548C506.622 161.548 543.462 163.18 536.003 189.834C528.543 216.488 314.149 214.265 305.616 189.834C297.083 165.403 325.12 160.516 325.12 160.516C325.12 160.516 320.243 146.859 335.817 132.17C351.391 117.482 377.536 126.312 377.536 126.312C377.536 126.312 372.66 96.9944 405.573 93.3297Z" fill="url(#paint0_linear_85_31)"/>
<path d="M1006.64 183.165C1021.76 181.332 1021.2 195.381 1021.2 195.381C1021.2 195.381 1036.87 189.884 1045.83 199.656C1054.79 209.429 1053.05 217.274 1053.05 217.274C1053.05 217.274 1069.97 218.09 1066.54 231.417C1063.12 244.744 964.661 243.633 960.742 231.417C956.824 219.201 969.699 216.758 969.699 216.758C969.699 216.758 967.459 209.93 974.611 202.585C981.763 195.241 993.77 199.656 993.77 199.656C993.77 199.656 991.531 184.997 1006.64 183.165Z" fill="url(#paint1_linear_85_31)"/>
<path d="M227 170C264.433 165.735 268.569 181.817 268.569 181.817C268.569 181.817 304.318 165.253 326.5 188C348.682 210.747 339.5 220 339.5 220C339.5 220 389.35 234.675 380.866 265.695C378.905 272.865 347 283 315 283C315 283 302.545 307 250 307C187.5 307 183 283 183 283C141.96 277.517 122.379 276.069 118.838 265.695C109.133 237.262 141.021 231.575 141.021 231.575C141.021 231.575 144.5 213 157.5 206C170.5 199 187.5 199 187.5 199C187.5 199 189.567 174.265 227 170Z" fill="url(#paint2_linear_85_31)"/>
<path d="M860.68 188.251C850.362 186.764 849.222 192.37 849.222 192.37C849.222 192.37 839.368 186.597 833.253 194.524C827.139 202.452 829.67 205.678 829.67 205.678C829.67 205.678 815.929 210.792 818.268 221.604C818.808 224.103 827.603 227.635 836.423 227.635C836.423 227.635 839.856 236 854.34 236C871.567 236 872.808 227.635 872.808 227.635C884.12 225.724 889.517 225.22 890.493 221.604C893.168 211.694 884.379 209.712 884.379 209.712C884.379 209.712 883.42 203.238 879.837 200.798C876.253 198.358 871.567 198.358 871.567 198.358C871.567 198.358 870.997 189.737 860.68 188.251Z" fill="url(#paint3_linear_85_31)"/>
<path d="M932.43 247.23C910.536 244.671 911.347 264.29 911.347 264.29C911.347 264.29 888.641 256.613 875.667 270.261C862.692 283.909 865.209 294.866 865.209 294.866C865.209 294.866 840.701 296.005 845.663 314.617C850.626 333.228 993.249 331.677 998.925 314.617C1004.6 297.557 985.95 294.145 985.95 294.145C985.95 294.145 989.195 284.609 978.834 274.352C968.474 264.095 951.081 270.261 951.081 270.261C951.081 270.261 954.325 249.789 932.43 247.23Z" fill="url(#paint4_linear_85_31)"/>
<defs>
<linearGradient id="paint0_linear_85_31" x1="420.5" y1="93" x2="420.5" y2="209" gradientUnits="userSpaceOnUse">
<stop stop-color="#D7A9A5"/>
<stop offset="1" stop-color="#FFE2DF"/>
</linearGradient>
<linearGradient id="paint1_linear_85_31" x1="1013.5" y1="183" x2="1013.5" y2="241" gradientUnits="userSpaceOnUse">
<stop stop-color="#D7A9A5"/>
<stop offset="1" stop-color="#FFE2DF"/>
</linearGradient>
<linearGradient id="paint2_linear_85_31" x1="249.5" y1="153" x2="249.5" y2="288" gradientUnits="userSpaceOnUse">
<stop stop-color="#C78E94"/>
<stop offset="1" stop-color="#FFE2DF"/>
</linearGradient>
<linearGradient id="paint3_linear_85_31" x1="854.478" y1="182.326" x2="854.478" y2="229.378" gradientUnits="userSpaceOnUse">
<stop stop-color="#C78E94"/>
<stop offset="1" stop-color="#FFE2DF"/>
</linearGradient>
<linearGradient id="paint4_linear_85_31" x1="922.5" y1="247" x2="922.5" y2="328" gradientUnits="userSpaceOnUse">
<stop stop-color="#E9C0C1"/>
<stop offset="1" stop-color="#FFE2DF"/>
</linearGradient>
</defs>
</svg>
