<svg width="1315" height="482" viewBox="0 0 1315 482" fill="none" xmlns="http://www.w3.org/2000/svg">
<g clip-path="url(#clip0_85_31)">
<path d="M3 360.799V0H1410.98C1410.98 0 1409.71 434.718 1410.97 437.913C1411 437.925 1411.01 437.931 1410.98 437.931C1410.98 437.931 1410.98 437.925 1410.97 437.913C1409.24 437.297 1331.26 420.213 1286.01 328.289C1286.01 328.289 1265.63 401.596 1210.92 391.397C1156.21 381.198 1126.71 307.89 1126.71 307.89C1126.71 307.89 1087.55 421.995 1013.53 421.995C939.511 421.995 907.328 344.225 907.328 344.225C907.328 344.225 888.019 445.581 811.317 472.354C734.616 499.127 676.151 421.995 676.151 421.995C676.151 421.995 616.613 437.931 566.73 437.931C516.847 437.931 469.11 360.799 469.11 360.799C469.11 360.799 427.809 401.596 373.099 401.596C318.389 401.596 222.377 328.289 222.377 328.289C222.377 328.289 188.049 401.596 122.612 401.596C57.1739 401.596 3 360.799 3 360.799Z" fill="url(#paint0_linear_85_31)"/>
</g>
<defs>
<linearGradient id="paint0_linear_85_31" x1="671.323" y1="422.632" x2="666.778" y2="0.0142841" gradientUnits="userSpaceOnUse">
<stop stop-color="#EACBCC"/>
<stop offset="1" stop-color="#D6A8AC"/>
</linearGradient>
<clipPath id="clip0_85_31">
<rect width="1315" height="482" fill="white"/>
</clipPath>
</defs>
</svg>
