<svg width="157" height="152" viewBox="0 0 157 152" fill="none" xmlns="http://www.w3.org/2000/svg">
<g clip-path="url(#clip0_51_9)">
<path d="M25 19.5L4.5 56.5L15.5 124L85 151.5L150 111V33C126.5 17.1667 89.4 -5.5 89 -5.5C88.6 -5.5 44.5 10.5 25 19.5Z" fill="#FEFAE0"/>
<circle cx="78.9999" cy="76.0001" r="60" transform="rotate(-9.93887 78.9999 76.0001)" fill="#B05768"/>
<path d="M52.9053 104.465C41.8502 102.884 30.0268 97.7949 27.1894 81.6022C24.352 65.4095 33.2065 51.9982 38.1963 45.8169C43.1862 39.6356 51.5333 35.1273 51.5333 35.1273C51.5333 35.1273 57.1594 46.3243 72.3731 43.6584C87.5867 40.9926 88.4705 28.6549 88.4705 28.6549C88.4705 28.6549 96.7525 27.9882 104.367 32.4684C111.982 36.9486 126.71 46.9968 130.439 68.2786C134.168 89.5604 120.12 107.881 120.12 107.881L115.683 88.354C115.683 88.354 119.753 83.9799 117.402 70.5631C115.051 57.1463 103.449 53.9338 103.449 53.9338L116.291 112.105C116.291 112.105 106.135 124.038 87.0438 127.383C67.9529 130.728 53.9008 121.746 53.9008 121.746L52.9053 104.465ZM52.9053 104.465C63.9603 106.047 83.3507 95.0348 83.3507 95.0348C83.3507 95.0348 103.915 70.4436 94.5977 63.6221C85.2805 56.8006 78.7768 68.9324 78.7768 68.9324C78.7768 68.9324 69.7941 60.754 63.3979 68.0739C57.0016 75.3938 72.3536 87.317 72.3536 87.317C72.3536 87.317 48.9766 95.7511 44.7629 83.2914C40.5491 70.8317 47.9047 63.6667 47.9047 63.6667L50.6555 89.4116" stroke="#FEFAE0" stroke-width="3" stroke-linejoin="round" stroke-dasharray="20 1"/>
</g>
<defs>
<clipPath id="clip0_51_9">
<rect width="157" height="152" fill="white"/>
</clipPath>
</defs>
</svg>
