<svg width="428" height="871" viewBox="0 0 428 871" fill="none" xmlns="http://www.w3.org/2000/svg">
<g clip-path="url(#clip0_68_2)">
<path d="M-277.402 854.284C-499.248 854.284 -277.402 1 -277.402 1H598.351C598.351 1 818.061 900.415 598.351 854.284C567.383 847.782 556.061 826.525 533.085 824.274C510.109 822.023 481.14 855.285 453.169 846.282C425.198 837.279 409.215 868.289 374.917 830.776C340.62 793.264 332.628 846.782 295.667 846.782C278.267 846.782 259.287 820.831 238.06 830.776C214.196 841.957 195.099 857.635 177.124 846.782C143.159 826.275 134.502 805.268 100.537 805.268C66.5725 805.268 48.9244 846.782 19.2886 846.782C-10.3473 846.782 -30.3263 804.768 -61.6269 816.772C-92.9276 828.776 -92.9276 846.782 -135.217 846.782C-177.506 846.782 -173.843 840.28 -196.819 832.277C-219.795 824.274 -227.787 854.284 -277.402 854.284Z" fill="#768D68"/>
</g>
<defs>
<clipPath id="clip0_68_2">
<rect width="428" height="871" fill="white"/>
</clipPath>
</defs>
</svg>
