<svg width="428" height="1023" viewBox="0 0 428 1023" fill="none" xmlns="http://www.w3.org/2000/svg">
<g clip-path="url(#clip0_73_5)">
<path d="M576.394 3.61271C764.272 0.325653 595.116 1073.72 595.116 1073.72L-146.543 1086.7C-146.543 1086.7 -352.346 -38.0092 -165.265 16.5886C-138.896 24.2841 -128.842 50.7749 -109.334 53.2571C-89.827 55.7394 -66.0229 13.5973 -42.1374 24.4736C-18.2519 35.3498 -5.39633 -3.77719 24.4727 42.7592C54.3418 89.2956 59.9355 22.0602 91.2374 21.5126C105.973 21.2548 122.616 53.5181 140.374 40.7314C160.339 26.3559 176.168 6.41154 191.629 19.7562C220.843 44.9707 228.636 71.1873 257.4 70.6841C286.164 70.1809 300.199 17.8567 325.297 17.4175C350.395 16.9784 368.237 69.3724 394.481 53.8544C420.726 38.3364 420.331 15.7549 456.145 15.1283C491.959 14.5017 488.999 22.7103 508.633 32.4061C528.266 42.1018 534.376 4.34784 576.394 3.61271Z" fill="#B6C9A1"/>
</g>
<defs>
<clipPath id="clip0_73_5">
<rect width="428" height="1023" fill="white"/>
</clipPath>
</defs>
</svg>
