<svg width="1315" height="631" viewBox="0 0 1315 631" fill="none" xmlns="http://www.w3.org/2000/svg">
<g clip-path="url(#clip0_73_2)">
<path d="M1318.18 47.8429C1653.02 47.5568 1318.91 901.127 1318.91 901.127L-2.88497 902.257C-2.88497 902.257 -335.269 3.12496 -3.61421 48.9726C43.1324 55.4348 60.2385 76.6773 94.9187 78.8984C129.599 81.1196 173.295 47.8211 215.52 56.788C257.745 65.7549 281.842 34.724 333.641 72.1922C385.439 109.66 397.455 56.1323 453.242 56.0846C479.504 56.0622 508.173 81.9882 540.203 72.0157C576.212 60.8041 605.022 45.1018 632.162 55.9317C683.443 76.3948 696.528 97.3906 747.792 97.3468C799.056 97.303 825.657 55.7664 870.387 55.7281C915.117 55.6899 945.308 97.6782 992.541 85.6338C1039.77 73.5894 1039.76 55.5834 1103.59 55.5288C1167.41 55.4743 1161.89 61.9812 1196.58 69.9543C1231.26 77.9272 1243.3 47.9069 1318.18 47.8429Z" fill="#B6C9A1"/>
</g>
<defs>
<clipPath id="clip0_73_2">
<rect width="1315" height="631" fill="white"/>
</clipPath>
</defs>
</svg>
