<svg width="1315" height="400" viewBox="0 0 1315 400" fill="none" xmlns="http://www.w3.org/2000/svg">
<g clip-path="url(#clip0_97_2)">
<path d="M78.5466 399.54C-256.292 399.826 77.8173 -453.744 77.8173 -453.744L1399.61 -454.874C1399.61 -454.874 1732 444.258 1400.34 398.41C1353.6 391.948 1336.49 370.705 1301.81 368.484C1267.13 366.263 1223.43 399.561 1181.21 390.595C1138.99 381.628 1114.89 412.659 1063.09 375.19C1011.29 337.722 999.275 391.25 943.488 391.298C917.226 391.32 888.557 365.394 856.527 375.367C820.518 386.578 791.708 402.281 764.568 391.451C713.287 370.988 700.202 349.992 648.938 350.036C597.674 350.08 571.073 391.616 526.343 391.654C481.613 391.693 451.422 349.704 404.189 361.749C356.957 373.793 356.972 391.799 293.144 391.854C229.315 391.908 234.838 385.401 200.153 377.428C165.468 369.455 153.432 399.476 78.5466 399.54Z" fill="#C78E94"/>
</g>
<defs>
<clipPath id="clip0_97_2">
<rect width="1315" height="400" fill="white"/>
</clipPath>
</defs>
</svg>
