<svg width="1315" height="700" viewBox="0 0 1315 700" fill="none" xmlns="http://www.w3.org/2000/svg">
<g clip-path="url(#clip0_97_2)">
<path d="M33.9074 672.591C-314.752 672.889 33.1782 -180.692 33.1782 -180.692L1409.53 -181.869C1409.53 -181.869 1755.6 717.251 1410.26 671.415C1361.59 664.955 1343.77 643.713 1307.66 641.493C1271.55 639.273 1226.05 672.573 1182.08 663.607C1138.12 654.642 1113.02 685.674 1059.09 648.207C1005.15 610.741 992.638 664.27 934.549 664.319C907.203 664.343 877.351 638.418 843.999 648.391C806.503 659.604 776.504 675.307 748.244 664.478C694.847 644.017 681.222 623.022 627.843 623.067C574.463 623.113 546.763 664.651 500.186 664.69C453.61 664.73 422.175 622.743 372.992 634.789C323.809 646.835 323.825 664.841 257.362 664.898C190.899 664.955 196.651 658.448 160.534 650.476C124.418 642.504 111.883 672.525 33.9074 672.591Z" fill="#768D68"/>
<path d="M33.9074 672.591C-314.752 672.889 33.1782 -180.692 33.1782 -180.692L1409.53 -181.869C1409.53 -181.869 1755.6 717.251 1410.26 671.415C1361.59 664.955 1343.77 643.713 1307.66 641.493C1271.55 639.273 1226.05 672.573 1182.08 663.607C1138.12 654.642 1113.02 685.674 1059.09 648.207C1005.15 610.741 992.638 664.27 934.549 664.319C907.203 664.343 877.351 638.418 843.999 648.391C806.503 659.604 776.504 675.307 748.244 664.478C694.847 644.017 681.222 623.022 627.843 623.067C574.463 623.113 546.763 664.651 500.186 664.69C453.61 664.73 422.175 622.743 372.992 634.789C323.809 646.835 323.825 664.841 257.362 664.898C190.899 664.955 196.651 658.448 160.534 650.476C124.418 642.504 111.883 672.525 33.9074 672.591Z" fill="#B6C9A1"/>
<path d="M33.9074 672.591C-314.752 672.889 33.1782 -180.692 33.1782 -180.692L1409.53 -181.869C1409.53 -181.869 1755.6 717.251 1410.26 671.415C1361.59 664.955 1343.77 643.713 1307.66 641.493C1271.55 639.273 1226.05 672.573 1182.08 663.607C1138.12 654.642 1113.02 685.674 1059.09 648.207C1005.15 610.741 992.638 664.27 934.549 664.319C907.203 664.343 877.351 638.418 843.999 648.391C806.503 659.604 776.504 675.307 748.244 664.478C694.847 644.017 681.222 623.022 627.843 623.067C574.463 623.113 546.763 664.651 500.186 664.69C453.61 664.73 422.175 622.743 372.992 634.789C323.809 646.835 323.825 664.841 257.362 664.898C190.899 664.955 196.651 658.448 160.534 650.476C124.418 642.504 111.883 672.525 33.9074 672.591Z" fill="#CB9698"/>
</g>
<defs>
<clipPath id="clip0_97_2">
<rect width="1315" height="700" fill="white"/>
</clipPath>
</defs>
</svg>
