<svg width="1326" height="530" viewBox="0 0 1326 530" fill="none" xmlns="http://www.w3.org/2000/svg">
<path d="M1183 29.7C1217.99 38.187 1326 103.078 1326 103.078V530H0V60.8191C0 60.8191 22 33.5388 44 71.3268C66 109.115 147.007 53.7031 165.5 47.2368C183.993 40.7705 182.507 11.1094 201 13.9384C219.493 16.7674 235.008 -7.88538 255 2.62236C274.992 13.1301 335.873 64.4564 350.868 60.8191C365.862 57.1818 405.012 24.4461 437.5 13.9384C469.988 3.43065 509.005 60.8191 523 60.8191C536.995 60.8191 561.507 22.4254 580 29.7C598.493 36.9746 621.005 8.28038 634 2.62236C646.995 -3.03566 737.023 112.888 799 112.888C853.479 95.1055 936.759 32.4428 967.5 29.7C1039.97 23.2337 1065.01 106.788 1082.5 103.078C1099.99 99.3678 1148.01 21.213 1183 29.7Z" fill="url(#paint0_linear_44_6)"/>
<defs>
<linearGradient id="paint0_linear_44_6" x1="663" y1="-53.8811" x2="663" y2="254" gradientUnits="userSpaceOnUse">
<stop stop-color="#C78E94"/>
<stop offset="1" stop-color="#E0C9C3"/>
</linearGradient>
</defs>
</svg>
