<svg width="1327" height="496" viewBox="0 0 1327 496" fill="none" xmlns="http://www.w3.org/2000/svg">
<path d="M94.5 69.905C59.5 80.405 0 115.405 0 115.405V496H1326.5V96.905C1326.5 96.905 1303.5 45.405 1270.5 34.905C1237.5 24.405 1188 130.405 1169.5 122.405C1151 114.405 1131 51.405 1112.5 54.905C1094 58.405 1070 21.905 1050 34.905C1030 47.905 990.5 146.405 975.5 141.905C960.5 137.405 894 14.4049 861.5 1.40488C829 -11.5951 750 69.9049 736 69.9049C722 69.9049 669.5 74.905 651 83.905C632.5 92.905 535 161.905 522 154.905C509 147.905 480.5 83.905 418.5 83.905C364 61.905 358.752 29.2983 328 25.905C255.5 17.905 195.5 107.995 178 103.405C160.5 98.8148 129.5 59.405 94.5 69.905Z" fill="url(#paint0_linear_44_3)"/>
<defs>
<linearGradient id="paint0_linear_44_3" x1="663.25" y1="0" x2="663.25" y2="380.905" gradientUnits="userSpaceOnUse">
<stop offset="0.14" stop-color="#B05768"/>
<stop offset="1" stop-color="#E0C9C3"/>
</linearGradient>
</defs>
</svg>
