<svg width="1327" height="380" viewBox="0 0 1327 380" fill="none" xmlns="http://www.w3.org/2000/svg">
<path d="M1232.46 68.9243C1267.48 79.4269 1327 114.436 1327 114.436V380.002H0V95.9311C0 95.9311 44.9875 79.4269 78 68.9243C111.012 58.4217 129.493 32.9153 148 24.9133C166.507 16.9114 208.493 -3.09377 227 0.407117C245.507 3.908 256.597 20.9124 276.604 33.9156C296.612 46.9188 334 124.502 351.132 140.942C368.265 157.383 417.488 81.9275 450 68.9243C482.512 55.921 540.495 9.50189 554.5 9.50189C568.505 9.50189 641.493 24.9133 660 33.9156C678.507 42.9178 731 121.062 749.5 131.002C768 140.942 798.477 82.0019 860.5 82.0019C915.021 59.9964 932.736 48.3961 963.5 45.0019C1036.03 36.9999 1061.99 105.093 1079.5 100.502C1097.01 95.9106 1197.45 58.4217 1232.46 68.9243Z" fill="url(#paint0_linear_44_4)"/>
<defs>
<linearGradient id="paint0_linear_44_4" x1="663.5" y1="-0.998108" x2="663.5" y2="380.002" gradientUnits="userSpaceOnUse">
<stop offset="0.379" stop-color="#B05768"/>
<stop offset="1" stop-color="#CA9398"/>
</linearGradient>
</defs>
</svg>
