<svg width="251" height="154" viewBox="0 0 251 154" fill="none" xmlns="http://www.w3.org/2000/svg">
<path d="M10 64L19 50.5L83 34.5L124 47.5L137.5 34.5H158L178.5 24.5L246.5 28V43L197 60L178.5 79L168.5 99.5L144 114L135 143.5H77L73.5 116L99.5 99.5V90L83 77L35.5 82.5L10 64Z" fill="#FAFBF2"/>
<path d="M182.231 51.2461H163.933C163.933 51.2461 161.853 48.0382 157.76 45.7865M182.231 51.2461L165.381 65.7608C165.381 65.7608 166.575 72.7048 166.5 74.5M182.231 51.2461C182.231 51.2461 167.48 59.7018 163.143 59.5021C158.806 59.3024 157.76 58.57 157.76 58.57M132.471 111.036C132.471 111.036 130.496 129.545 123.124 134.872C115.752 140.198 113.909 126.35 113.909 126.35C113.909 126.35 99.6914 138.734 88.5019 137.136C77.3123 135.538 78.1022 124.752 87.0538 115.563C96.0055 106.375 108.511 103.641 108.511 103.641M132.471 111.036C123.519 115.563 111.257 111.092 108.511 103.641M132.471 111.036C161.483 101.18 166.154 82.81 166.5 74.5M112.329 77.6402C112.329 77.6402 102.552 87.4662 108.511 103.641M121.281 76.9464C121.281 76.9464 100.35 81.8734 82.4464 65.7608C82.4464 65.7608 73.2314 70.5546 60.989 72.6852C48.7466 74.8157 32.6858 74.0168 23.7343 64.2959C14.7828 54.5751 43.3489 68.0245 57.4346 58.57C71.5202 49.1155 75.4693 47.9171 80.9984 45.7865C86.5276 43.6559 102.061 51.6455 108.511 55.1078C114.962 58.57 128.916 60.168 128.916 60.168C128.916 60.168 138.131 44.1885 148.399 43.6559C152.215 43.4579 155.339 44.4551 157.76 45.7865M157.76 45.7865C157.76 45.7865 165.381 43.661 168.277 41.5253C171.173 39.3896 177.124 33.2693 180.388 33.2693C187.101 33.2692 190.866 37.2375 204.873 34.4677C204.873 34.4677 235.151 29.5407 232.913 34.4677C230.675 39.3947 213.298 44.7211 213.298 44.7211C213.298 44.7211 198.688 52.4622 190 49L166.5 74.5M132.471 103.641L136.156 96.6543L127.468 100.383M150.242 105.177L151.69 97.7196L144.713 103.641" stroke="#873B4A" stroke-width="2"/>
<ellipse cx="149.342" cy="55.279" rx="1.85072" ry="2.71168" transform="rotate(-19.7838 149.342 55.279)" fill="#873B4A"/>
</svg>
