<svg width="236" height="158" viewBox="0 0 236 158" fill="none" xmlns="http://www.w3.org/2000/svg">
<g clip-path="url(#clip0_66_27)">
<path d="M199 48.5L217.5 18L208 6.5L173 29.5L145.5 38.5L123 63.5L100.5 55.6667L85 63.5L22 74.2448L18.5 91.3165L50 98H79.5L89.5 105.878L100.5 125.5L133.5 132L156.5 151L178 145L199 125.5L184.776 105.878L160 100.5V91.3165L150.5 81.7764L165.799 63.5L199 48.5Z" fill="#FAFBF2"/>
<path d="M72.3943 88.7722L89.2599 80.9263C89.2599 80.9263 89.5332 77.2612 91.785 73.7302M72.3943 88.7722L94.2499 94.6134C94.2499 94.6134 96.2449 101.344 97.0606 102.944M72.3943 88.7722C72.3943 88.7722 90.0527 89.8834 93.3602 88.1245C96.6677 86.3656 97.177 85.3209 97.177 85.3209M136.515 125.704C136.515 125.704 148.437 139.754 156.449 141.902C164.461 144.049 160.061 130.822 160.061 130.822C160.061 130.822 176.403 136.878 184.48 131.358C192.557 125.838 187.39 116.346 176.514 111.272C165.637 106.198 154.703 108.268 154.703 108.268M136.515 125.704C145.426 126.552 155.699 116.024 154.703 108.268M136.515 125.704C109.668 127.324 100.836 110.353 97.0606 102.944M140.532 83.5085C140.532 83.5085 152.542 91.435 154.703 108.268M133.457 88.7109C133.457 88.7109 150.398 79.3614 157.603 58.2386C157.603 58.2386 171.43 56.2797 184.507 46.4573C197.584 36.6349 205.199 26.9917 207.463 17.5667C209.728 8.14181 184.334 33.0457 176.17 38.0186C168.006 42.9915 157.041 45.723 151.818 45.8028C146.595 45.8826 137.817 58.7782 134.233 64.2642C130.648 69.7502 122.178 73.6904 122.178 73.6904C122.178 73.6904 106.462 65.14 98.2069 68.3928C95.1396 69.6015 93.1164 71.6424 91.785 73.7302M91.785 73.7302C91.785 73.7302 84.9283 74.5757 81.7625 73.6929C78.5967 72.8102 71.3118 72.9296 68.7596 74.1168C63.5089 76.5594 62.2871 78.0238 50.1645 80.6085C50.1645 80.6085 24.8456 81.2289 28.6739 84.8819C32.5023 88.535 49.2536 88.8161 49.2536 88.8161C49.2536 88.8161 66.9471 90.3591 72.2817 84.0589L97.0606 102.944M135.965 116.985L128.774 109.064L138.504 112.211M120.288 126.798L116.378 118.392L124.765 122.196" stroke="#873B4A" stroke-width="2"/>
<ellipse cx="1.62754" cy="2.67163" rx="1.62754" ry="2.67163" transform="matrix(-0.999988 0.00490151 0.0989675 0.995091 105.255 76)" fill="#873B4A"/>
</g>
<defs>
<clipPath id="clip0_66_27">
<rect width="236" height="158" fill="white"/>
</clipPath>
</defs>
</svg>
