<svg width="109" height="92" viewBox="0 0 109 92" fill="none" xmlns="http://www.w3.org/2000/svg">
<g clip-path="url(#clip0_79_20)">
<path d="M4 74L0.5 38.5L10 9L23.5 0L86 9L109 25.5L102.5 76.5L86 92L4 74Z" fill="#FEFAE0"/>
<path d="M79.0533 79L11 60.3647L16.2957 35.9059L20.6667 15.7176L26.08 16.8824L27.24 13L98 30.0824L84.4667 77.4471L79.0533 79Z" fill="#B6C9A1"/>
<path d="M79.0533 79L11 60.3647L16.2957 35.9059M79.0533 79L84.4667 77.4471L98 30.0824L27.24 13L26.08 16.8824M79.0533 79L84.4667 54.9294M26.08 16.8824L20.6667 15.7176L16.2957 35.9059M26.08 16.8824L32.46 18.5116L40.3867 20.3765M68.6133 27.0768L89.4933 32.0235L84.4667 54.9294M68.6133 27.0768L84.4667 54.9294M68.6133 27.0768L40.3867 20.3765M40.3867 20.3765L16.2957 35.9059" stroke="#768D68"/>
<path d="M29 17.1455L36.7215 9L56.7187 19.4727L90 24.1273L89.8162 31.8848L88.8418 73H80.3481L89.8162 31.8848L73.0127 28.0061L29 17.1455Z" fill="#C78E94"/>
<path d="M73.0127 28.0061L29 17.1455L36.7215 9L56.7187 19.4727M73.0127 28.0061L56.7187 19.4727M73.0127 28.0061L89.8162 31.8848M56.7187 19.4727L90 24.1273L89.8162 31.8848M89.8162 31.8848L88.8418 73H80.3481L89.8162 31.8848Z" stroke="#B05768"/>
<path d="M47 58.5C46.5 54 49 53 49 53C49 53 47 49.5 49.5 48.5C52 47.5 53.5 51.5 53.5 51.5L58.5 51C58.5 51 59 47 61.5 47.5C64 48 63.5 51 63.5 51C63.5 51 67 51.5 67.5 56C68 60.5 62.5 63.5 58.5 64C54.5 64.5 47.5 63 47 58.5Z" fill="#FFE2DF"/>
<path d="M53.5 57C53.5 57 55.5 59.5 58 59C60.5 58.5 61 55.5 61 55.5M49 53C49 53 46.5 54 47 58.5C47.5 63 54.5 64.5 58.5 64C62.5 63.5 68 60.5 67.5 56C67 51.5 63.5 51 63.5 51C63.5 51 64 48 61.5 47.5C59 47 58.5 51 58.5 51L53.5 51.5C53.5 51.5 52 47.5 49.5 48.5C47 49.5 49 53 49 53Z" stroke="#CB9698"/>
<ellipse cx="51" cy="51.5" rx="1" ry="1.5" transform="rotate(-16.4238 51 51.5)" fill="#CB9698"/>
<ellipse cx="61.1169" cy="50.5" rx="0.996718" ry="1.41829" transform="rotate(5.01593 61.1169 50.5)" fill="#CB9698"/>
</g>
<defs>
<clipPath id="clip0_79_20">
<rect width="109" height="92" fill="white"/>
</clipPath>
</defs>
</svg>
