<svg width="135" height="123" viewBox="0 0 135 123" fill="none" xmlns="http://www.w3.org/2000/svg">
<g clip-path="url(#clip0_79_13)">
<path d="M80.5 0L4.5 17.5L0 93L45 123L91 120L137.5 79.5L133.5 30L80.5 0Z" fill="#FEFAE0"/>
<path d="M16 86V44.5L82.5 27L118.5 40L116.5 81L58 110.5L16 86Z" fill="#B6C9A1"/>
<path d="M16 44.5V86L58 110.5M16 44.5L47 61M16 44.5L82.5 27L118.5 40M58 110.5V81M58 110.5L116.5 81L118.5 40M58 81L47 61M58 81L69.5 61M47 61H69.5M118.5 40L69.5 61M16 29.5L82.5 13.5M16 29.5L21.5 22M16 29.5L23.5 33.5M82.5 13.5L75 9.5M82.5 13.5L78.5 19.5" stroke="#768D68"/>
<path d="M112.5 78L80.5 93V67V62.5L84.5 60.8636L113.5 49L112.5 78Z" fill="#CB9698"/>
<path d="M112.5 78L80.5 93V67M112.5 78L113.5 49L84.5 60.8636M112.5 78L84.5 65.5M84.5 65.5V60.8636M84.5 65.5L80.5 67M84.5 60.8636L80.5 62.5V67" stroke="#B05768"/>
</g>
<defs>
<clipPath id="clip0_79_13">
<rect width="135" height="123" fill="white"/>
</clipPath>
</defs>
</svg>
