<svg width="147" height="136" viewBox="0 0 147 136" fill="none" xmlns="http://www.w3.org/2000/svg">
<g clip-path="url(#clip0_78_6)">
<path d="M34.5 136L0 97.5L23.5 22L47 0L126.5 18.5L147 87L135 125L34.5 136Z" fill="#FEFAE0"/>
<path d="M46.3281 61.101C56.1553 59.9783 55.7913 68.5857 55.7913 68.5857C55.7913 68.5857 65.9824 65.2176 71.8059 71.2054C77.6295 77.1931 76.5 82 76.5 82C76.5 82 87.5 82.5 85.2727 90.6654C83.0454 98.8309 19.0303 98.1501 16.4825 90.6654C13.9347 83.1808 22.3061 81.6839 22.3061 81.6839C22.3061 81.6839 20.8499 77.5 25.5 73C30.1501 68.5 37.9568 71.2053 37.9568 71.2053C37.9568 71.2053 36.5009 62.2237 46.3281 61.101Z" fill="#B6C9A1" stroke="#768D68"/>
<path d="M109.236 91.0645C103.48 90.3472 103.694 95.8464 103.694 95.8464C103.694 95.8464 97.7246 93.6946 94.3137 97.5201C90.9027 101.346 92.1818 102.78 92.1818 102.78C92.1818 102.78 84.081 103.976 86.426 109.953C88.771 115.93 125.225 114.735 126.717 109.953C128.21 105.171 123.306 104.215 123.306 104.215C123.306 104.215 125.012 101.346 121.388 97.5201C117.764 93.6946 114.14 97.5201 114.14 97.5201C114.14 97.5201 114.992 91.7818 109.236 91.0645Z" fill="#B6C9A1" stroke="#768D68"/>
<path d="M45.0526 39.1822C43.1099 35.6468 42.5 31.4696 42.5 29C42.5 24 46 13 56 13C56 13 68.5 13 77 20.5C85.5 28 89 20 98 26C107 32 116 30.5 116 30.5C116 30.5 120.731 31 121.5 36C122.269 41 117 43 117 43C117 43 110 44.5 101.5 44.5C93 44.5 89.5 38.6071 80.5 41.5C71.5 44.3929 68.5 44.5 56 45.5C50.4331 45.753 47.0432 42.8046 45.0526 39.1822Z" fill="url(#paint0_linear_78_6)"/>
<path d="M40.5 77.5L46.5 27M46.5 27L69 31.5M46.5 27L56 13M46.5 27L42.5 29M46.5 27L56 45.5M42.5 29C42.5 34 45 46 56 45.5M42.5 29C42.5 24 46 13 56 13M56 45.5C68.5 44.5 71.5 44.3929 80.5 41.5C89.5 38.6071 93 44.5 101.5 44.5C110 44.5 117 43 117 43C117 43 122.269 41 121.5 36C120.731 31 116 30.5 116 30.5C116 30.5 107 32 98 26C89 20 85.5 28 77 20.5C68.5 13 56 13 56 13M56 45.5C56 45.5 68.5 44 69 31.5M56 13C64.5 14 69.5 19 69 31.5M38.5 96.5L36 119.5" stroke="#B05768"/>
<path d="M35 81.0489C35 81.0489 37 77.5489 41.5 78.0489C46 78.5489 46.5 81.0488 46.5 81.0488" stroke="#768D68"/>
</g>
<defs>
<linearGradient id="paint0_linear_78_6" x1="49" y1="29.5" x2="122" y2="38" gradientUnits="userSpaceOnUse">
<stop stop-color="#CB9698"/>
<stop offset="1" stop-color="#FFE2DF"/>
</linearGradient>
<clipPath id="clip0_78_6">
<rect width="147" height="136" fill="white"/>
</clipPath>
</defs>
</svg>
