<svg width="127" height="120" viewBox="0 0 127 120" fill="none" xmlns="http://www.w3.org/2000/svg">
<g clip-path="url(#clip0_79_16)">
<path d="M88.8498 0.00610563C88.8498 -0.377875 39.9908 17.4452 15.5613 26.4048L0 106.081L72.2846 120L127 84.9618L116.96 21.125C107.59 14.2454 88.8498 0.390086 88.8498 0.00610563Z" fill="#FEFAE0"/>
<path fill-rule="evenodd" clip-rule="evenodd" d="M44.5 72C51.1231 71.7635 61.215 75.2196 70.8056 78.5041C81.4878 82.1624 91.548 85.6077 95.5 83.5C103 79.5 105 67.5 105 67.5C106.61 62.9926 105.317 62.2168 103.792 61.3015C103.695 61.2434 103.598 61.1849 103.5 61.1247C102.833 59.7498 103.4 57.7 105 58.5C105.725 58.8625 105.998 59.2044 106.173 59.4235C106.385 59.688 106.453 59.7735 107 59.5C108 59 108.5 56.4592 108.5 56.4592C109.417 57.7245 110.284 59.2054 110.5 60.5C111 63.5 106.5 68.5 106.5 68.5C106.525 68.6663 106.551 68.8363 106.578 69.0097C107.427 74.5713 108.819 83.6814 103 89.5C98.7953 93.7048 87.5 94.5 79 90.5C70.5 86.5 53 81 44.5 86C38.8252 89.3382 37.8304 93.7906 37.0521 97.2743C36.6647 99.0087 36.3309 100.503 35.4999 101.5C32.9999 104.5 28.9999 99.5 30.4999 93.5C31.0846 91.1614 29.9222 92.5448 27.8713 94.9857C24.6603 98.8071 19.2716 105.22 15 104C10.1259 102.607 13.2326 98.4574 16.1784 94.5222C18.0677 91.9984 19.8909 89.563 19.5001 88C19.0227 86.0904 16.8358 86.9158 14.8982 87.6471C12.7772 88.4477 10.9548 89.1355 12 86C14 80 30.5 72.5 44.5 72Z" fill="#C78E94"/>
<path d="M106 53.5C106 53.5 105.653 51.9623 105.074 49.5C104.897 48.7472 104.699 47.9081 104.482 47C102.225 37.5419 97.9821 20.6097 95.5 16C92 9.5 89.4999 9 89.4999 9C89.4999 9 87.9999 13.5 89.4999 19C90.5628 22.8974 96.8982 39.0969 100.5 48.2067C100.864 49.1274 101.2 49.9756 101.5 50.7315C102.42 53.051 103 54.5 103 54.5L106 53.5Z" fill="#C78E94"/>
<path d="M106 53.5L103 54.5M106 53.5C106 53.5 107.293 54.7926 108.5 56.4592M106 53.5C106 53.5 105.653 51.9623 105.074 49.5M103 54.5C101.5 55.5 100.909 57.6213 101.5 59C101.973 60.1035 102.744 60.6603 103.5 61.1247M103 54.5C103 54.5 102.42 53.051 101.5 50.7315M103.5 61.1247C102.833 59.7498 103.4 57.7 105 58.5C105.725 58.8625 105.998 59.2044 106.173 59.4235C106.385 59.688 106.453 59.7735 107 59.5C108 59 108.5 56.4592 108.5 56.4592M103.5 61.1247C103.598 61.1849 103.695 61.2434 103.792 61.3015C105.317 62.2168 106.61 62.9926 105 67.5C105 67.5 103 79.5 95.5 83.5C91.548 85.6077 81.4878 82.1624 70.8056 78.5041C61.215 75.2196 51.1231 71.7635 44.5 72C30.5 72.5 14 80 12 86C10.9548 89.1355 12.7772 88.4477 14.8982 87.6471C16.8358 86.9158 19.0227 86.0904 19.5001 88C19.8909 89.563 18.0677 91.9984 16.1784 94.5222C13.2326 98.4574 10.1259 102.607 15 104C19.2716 105.22 24.6603 98.8071 27.8713 94.9857C29.9222 92.5448 31.0846 91.1614 30.4999 93.5C28.9999 99.5 32.9999 104.5 35.4999 101.5C36.3309 100.503 36.6647 99.0087 37.0521 97.2743C37.8304 93.7906 38.8252 89.3382 44.5 86C53 81 70.5 86.5 79 90.5C87.5 94.5 98.7953 93.7048 103 89.5C108.819 83.6814 107.427 74.5713 106.578 69.0097C106.551 68.8363 106.525 68.6663 106.5 68.5C106.5 68.5 111 63.5 110.5 60.5C110.284 59.2054 109.417 57.7245 108.5 56.4592M101.5 50.7315L105.074 49.5M101.5 50.7315C101.2 49.9756 100.864 49.1274 100.5 48.2067M105.074 49.5C104.897 48.7472 104.699 47.9081 104.482 47M100.5 48.2067C96.8982 39.0969 90.5628 22.8974 89.4999 19C87.9999 13.5 89.4999 9 89.4999 9C89.4999 9 92 9.5 95.5 16C97.9821 20.6097 102.225 37.5419 104.482 47M100.5 48.2067L104.482 47" stroke="#873B4A"/>
<path d="M21.1999 43.9474C22.7999 38.0752 30.0889 31.4912 34 29L61.7332 31.1353C61.7332 31.1353 51.0667 36.4737 47.3333 45.015C43.6 53.5564 43.6 65.3008 43.6 65.3008L18 60.4962C18 57.4712 19.5999 49.8195 21.1999 43.9474Z" fill="#B6C9A1"/>
<path d="M50.5332 83.985C49.4666 74.9098 50.5332 67.9699 50.5332 67.9699L72.9333 60.4962C72.9333 60.4962 72.4 69.5714 74.5333 79.1805C76.6667 88.7895 82 100 82 100L57.4667 98.9323C57.4667 98.9323 51.5999 93.0602 50.5332 83.985Z" fill="#B6C9A1"/>
<path d="M21.1999 43.9474C22.7999 38.0752 30.0889 31.4912 34 29L61.7332 31.1353C61.7332 31.1353 51.0667 36.4737 47.3333 45.015C43.6 53.5564 43.6 65.3008 43.6 65.3008L18 60.4962C18 57.4712 19.5999 49.8195 21.1999 43.9474Z" stroke="#768D68"/>
<path d="M50.5332 83.985C49.4666 74.9098 50.5332 67.9699 50.5332 67.9699L72.9333 60.4962C72.9333 60.4962 72.4 69.5714 74.5333 79.1805C76.6667 88.7895 82 100 82 100L57.4667 98.9323C57.4667 98.9323 51.5999 93.0602 50.5332 83.985Z" stroke="#768D68"/>
</g>
<defs>
<clipPath id="clip0_79_16">
<rect width="127" height="120" fill="white"/>
</clipPath>
</defs>
</svg>
